<svg xmlns="http://www.w3.org/2000/svg" xmlns:xlink="http://www.w3.org/1999/xlink" width="132" height="75.403" viewBox="0 0 132 75.403">
  <defs>
    <clipPath id="clip-path">
      <rect id="Rectangle_29" data-name="Rectangle 29" width="132" height="75.403" fill="#fff"/>
    </clipPath>
    <clipPath id="clip-path-3">
      <rect id="Rectangle_20" data-name="Rectangle 20" width="11.635" height="11.635" fill="#fff"/>
    </clipPath>
    <clipPath id="clip-path-4">
      <rect id="Rectangle_21" data-name="Rectangle 21" width="9.696" height="9.696" fill="#fff"/>
    </clipPath>
    <clipPath id="clip-path-5">
      <rect id="Rectangle_22" data-name="Rectangle 22" width="7.11" height="7.11" fill="#fff"/>
    </clipPath>
    <clipPath id="clip-path-6">
      <rect id="Rectangle_23" data-name="Rectangle 23" width="5.171" height="5.818" fill="#fff"/>
    </clipPath>
    <clipPath id="clip-path-7">
      <rect id="Rectangle_24" data-name="Rectangle 24" width="10.991" height="11.634" fill="#fff"/>
    </clipPath>
    <clipPath id="clip-path-9">
      <rect id="Rectangle_26" data-name="Rectangle 26" width="7.111" height="7.111" fill="#fff"/>
    </clipPath>
    <clipPath id="clip-path-10">
      <rect id="Rectangle_27" data-name="Rectangle 27" width="5.171" height="5.171" fill="#fff"/>
    </clipPath>
  </defs>
  <g id="Group_48" data-name="Group 48" transform="translate(-828 -3381)" opacity="0.522" style="mix-blend-mode: luminosity;isolation: isolate">
    <g id="Group_47" data-name="Group 47" transform="translate(828 3381)">
      <g id="Group_46" data-name="Group 46" clip-path="url(#clip-path)">
        <g id="Group_45" data-name="Group 45" transform="translate(0 0)">
          <g id="Group_44" data-name="Group 44" clip-path="url(#clip-path)">
            <path id="Path_462" data-name="Path 462" d="M112.757,4.059a7.278,7.278,0,0,1,7.11,7.434,7.117,7.117,0,1,1-14.221,0,7.278,7.278,0,0,1,7.11-7.434" transform="translate(12.132 0.466)" fill="#fff"/>
            <g id="Group_22" data-name="Group 22" transform="translate(101.62 0)" opacity="0.75" style="isolation: isolate">
              <g id="Group_21" data-name="Group 21" transform="translate(0 0)">
                <g id="Group_20" data-name="Group 20" clip-path="url(#clip-path-3)">
                  <path id="Path_463" data-name="Path 463" d="M96.97,0a5.818,5.818,0,1,1-5.817,5.817A5.817,5.817,0,0,1,96.97,0" transform="translate(-91.152 0)" fill="#fff"/>
                </g>
              </g>
            </g>
            <g id="Group_25" data-name="Group 25" transform="translate(87.399 0)" opacity="0.51" style="isolation: isolate">
              <g id="Group_24" data-name="Group 24" transform="translate(0 0)">
                <g id="Group_23" data-name="Group 23" clip-path="url(#clip-path-4)">
                  <path id="Path_464" data-name="Path 464" d="M83.244,0A4.848,4.848,0,1,1,78.4,4.848,4.848,4.848,0,0,1,83.244,0" transform="translate(-78.396 0)" fill="#fff"/>
                </g>
              </g>
            </g>
            <g id="Group_28" data-name="Group 28" transform="translate(75.764 4.524)" opacity="0.32" style="isolation: isolate">
              <g id="Group_27" data-name="Group 27">
                <g id="Group_26" data-name="Group 26" clip-path="url(#clip-path-5)">
                  <path id="Path_465" data-name="Path 465" d="M71.515,4.059A3.555,3.555,0,1,1,67.96,7.614a3.556,3.556,0,0,1,3.555-3.555" transform="translate(-67.96 -4.059)" fill="#fff"/>
                </g>
              </g>
            </g>
            <g id="Group_31" data-name="Group 31" transform="translate(67.361 10.342)" opacity="0.22" style="isolation: isolate">
              <g id="Group_30" data-name="Group 30">
                <g id="Group_29" data-name="Group 29" clip-path="url(#clip-path-6)">
                  <path id="Path_466" data-name="Path 466" d="M63.007,9.277a2.761,2.761,0,0,1,2.585,2.909,2.6,2.6,0,1,1-5.171,0,2.761,2.761,0,0,1,2.585-2.909" transform="translate(-60.422 -9.277)" fill="#fff"/>
                </g>
              </g>
            </g>
            <path id="Path_467" data-name="Path 467" d="M6.722,49.389A7.441,7.441,0,0,1,7.5,64.235a7.441,7.441,0,0,1-.779-14.846" transform="translate(0 5.67)" fill="#fff"/>
            <g id="Group_34" data-name="Group 34" transform="translate(20.436 63.769)" opacity="0.75" style="isolation: isolate">
              <g id="Group_33" data-name="Group 33">
                <g id="Group_32" data-name="Group 32" clip-path="url(#clip-path-7)">
                  <path id="Path_468" data-name="Path 468" d="M23.522,57.209a5.827,5.827,0,0,1,.61,11.619,5.827,5.827,0,0,1-.61-11.619" transform="translate(-18.331 -57.201)" fill="#fff"/>
                </g>
              </g>
            </g>
            <g id="Group_37" data-name="Group 37" transform="translate(35.981 64.927)" opacity="0.51" style="isolation: isolate">
              <g id="Group_36" data-name="Group 36">
                <g id="Group_35" data-name="Group 35" clip-path="url(#clip-path-4)">
                  <path id="Path_469" data-name="Path 469" d="M36.869,58.247a4.848,4.848,0,1,1-4.588,5.095,4.847,4.847,0,0,1,4.588-5.095" transform="translate(-32.275 -58.24)" fill="#fff"/>
                </g>
              </g>
            </g>
            <g id="Group_40" data-name="Group 40" transform="translate(49.981 61.67)" opacity="0.32" style="isolation: isolate">
              <g id="Group_39" data-name="Group 39">
                <g id="Group_38" data-name="Group 38" clip-path="url(#clip-path-9)">
                  <path id="Path_470" data-name="Path 470" d="M48.2,55.323a3.555,3.555,0,1,1-3.365,3.737A3.556,3.556,0,0,1,48.2,55.323" transform="translate(-44.833 -55.318)" fill="#fff"/>
                </g>
              </g>
            </g>
            <g id="Group_43" data-name="Group 43" transform="translate(60.023 56.662)" opacity="0.22" style="isolation: isolate">
              <g id="Group_42" data-name="Group 42">
                <g id="Group_41" data-name="Group 41" clip-path="url(#clip-path-10)">
                  <path id="Path_471" data-name="Path 471" d="M56.29,50.829a2.586,2.586,0,1,1-2.447,2.718,2.587,2.587,0,0,1,2.447-2.718" transform="translate(-53.84 -50.825)" fill="#fff"/>
                </g>
              </g>
            </g>
            <path id="Path_472" data-name="Path 472" d="M40.827,47.381h-7.06L21.957,29.5V47.381H14.9V18.393h7.061L33.767,36.355V18.393h7.06Z" transform="translate(1.711 2.112)" fill="#fff"/>
            <path id="Path_473" data-name="Path 473" d="M64.506,18.393V24.05H56.825V47.381H49.763V24.05h-7.68V18.393Z" transform="translate(4.833 2.112)" fill="#fff"/>
            <path id="Path_474" data-name="Path 474" d="M71,46.681a9.278,9.278,0,0,1-4.026-3.057,8.334,8.334,0,0,1-1.59-4.872H72.9a3.647,3.647,0,0,0,1.115,2.457,3.586,3.586,0,0,0,2.478.846,3.877,3.877,0,0,0,2.477-.722,2.418,2.418,0,0,0,.909-2,2.372,2.372,0,0,0-.722-1.776A5.877,5.877,0,0,0,77.378,36.4a28.911,28.911,0,0,0-2.994-1.032A32.592,32.592,0,0,1,69.8,33.632a8.456,8.456,0,0,1-3.056-2.561,7.13,7.13,0,0,1-1.281-4.418A7.6,7.6,0,0,1,68.4,20.314a12.05,12.05,0,0,1,7.64-2.292,12.191,12.191,0,0,1,7.721,2.292,8.2,8.2,0,0,1,3.138,6.38h-7.64a2.985,2.985,0,0,0-1.032-2.21,3.631,3.631,0,0,0-2.436-.806,3.033,3.033,0,0,0-2.065.682,2.459,2.459,0,0,0-.785,1.961A2.43,2.43,0,0,0,74.26,28.51,21.534,21.534,0,0,0,78.389,30.2a38.185,38.185,0,0,1,4.563,1.816,8.685,8.685,0,0,1,3.035,2.518,6.75,6.75,0,0,1,1.281,4.253,8.349,8.349,0,0,1-1.26,4.5,8.844,8.844,0,0,1-3.654,3.222,12.535,12.535,0,0,1-5.658,1.2A14.922,14.922,0,0,1,71,46.681" transform="translate(7.508 2.069)" fill="#fff"/>
            <path id="Path_475" data-name="Path 475" d="M96.7,41.931h9.25v5.45H89.642V18.394H96.7Z" transform="translate(10.294 2.112)" fill="#fff"/>
          </g>
        </g>
      </g>
    </g>
  </g>
</svg>
